<?xml version="1.0" encoding="utf-8"?>
<!-- Generator: Adobe Illustrator 16.0.0, SVG Export Plug-In . SVG Version: 6.00 Build 0)  -->
<!DOCTYPE svg PUBLIC "-//W3C//DTD SVG 1.1//EN" "http://www.w3.org/Graphics/SVG/1.1/DTD/svg11.dtd">
<svg version="1.1" id="Layer_1" xmlns="http://www.w3.org/2000/svg" xmlns:xlink="http://www.w3.org/1999/xlink" x="0px" y="0px"
	 width="413.637px" height="406.061px" viewBox="0 0 413.637 406.061" enable-background="new 0 0 413.637 406.061"
	 xml:space="preserve">
<g>
	<defs>
		<circle id="SVGID_1_" cx="206.761" cy="205.182" r="183.82"/>
	</defs>
	<clipPath id="SVGID_2_">
		<use xlink:href="#SVGID_1_"  overflow="visible"/>
	</clipPath>
	<rect x="-210.242" y="-152.091" clip-path="url(#SVGID_2_)" fill="#41366E" width="801" height="716"/>
	<g clip-path="url(#SVGID_2_)">
		<linearGradient id="SVGID_3_" gradientUnits="userSpaceOnUse" x1="40.5781" y1="204.1826" x2="346.9447" y2="204.1826">
			<stop  offset="0" style="stop-color:#FAAD77"/>
			<stop  offset="0.3172" style="stop-color:#F3818F"/>
			<stop  offset="0.6129" style="stop-color:#EF5FA2"/>
			<stop  offset="1" style="stop-color:#E0519D"/>
		</linearGradient>
		<path fill="url(#SVGID_3_)" d="M153.2,204.181c0-27.084,10.758-53.058,29.909-72.211c18.35-18.35,36.698-36.696,55.047-55.045
			c-2.253-3.975-5.005-7.684-8.293-10.971c-9.576-9.576-22.563-14.955-36.104-14.955c-13.542,0-27.001,5.379-36.574,14.955
			c-9.578,9.576-15.428,22.563-15.428,36.104c0,17.024,0,35.852,0,52.852c-15,0-33.099,0-50.121,0
			c-13.542,0-26.529,4.485-36.105,14.059c-9.574,9.578-14.953,22.118-14.953,35.659c0,13.547,5.379,26.643,14.953,36.219
			c9.576,9.576,22.564,15.063,36.105,15.063c17.022,0,35.121,0,50.121,0c0,17,0,33.373,0,50.394c0,13.542,5.852,26.53,15.428,36.107
			c9.575,9.572,22.799,14.955,36.34,14.955c13.545,0,26.647-5.383,36.224-14.957c3.286-3.288,6.094-6.998,8.344-10.971
			c-18.349-18.353-36.665-36.697-55.013-55.045C163.929,257.241,153.2,231.266,153.2,204.181z"/>
		<linearGradient id="SVGID_4_" gradientUnits="userSpaceOnUse" x1="40.5776" y1="204.1807" x2="346.9425" y2="204.1807">
			<stop  offset="0" style="stop-color:#FAAD77"/>
			<stop  offset="0.3172" style="stop-color:#F3818F"/>
			<stop  offset="0.6129" style="stop-color:#EF5FA2"/>
			<stop  offset="1" style="stop-color:#E0519D"/>
		</linearGradient>
		<path fill="url(#SVGID_4_)" d="M346.942,204.181c0-13.542-5.381-26.53-14.957-36.104c-7.221-7.223-16.38-12.049-26.257-13.99
			c-11.999,13.869-18.685,31.633-18.682,50.094c0,18.464,6.683,36.224,18.682,50.094c9.877-1.939,19.04-6.768,26.257-13.988
			C341.562,230.71,346.942,217.722,346.942,204.181z"/>
		<linearGradient id="SVGID_5_" gradientUnits="userSpaceOnUse" x1="153.1367" y1="108.1426" x2="326.0151" y2="108.1426">
			<stop  offset="0" style="stop-color:#4DC0B3"/>
			<stop  offset="0.5054" style="stop-color:#5ECBED"/>
			<stop  offset="1" style="stop-color:#4286C6"/>
		</linearGradient>
		<path fill="url(#SVGID_5_)" d="M244.758,154.909c15,0,34.104,0,51.124,0c3.334,0,6.627-0.562,9.847,0.071
			c1.206-1.389,2.444-3.201,3.75-4.509c0.525-0.527,1.053-1.276,1.579-1.802c9.576-9.576,14.957-22.675,14.957-36.218
			s-5.381-26.585-14.957-36.16c-9.575-9.576-22.563-14.985-36.105-14.985s-26.528,5.366-36.104,14.94
			c-0.231,0.232-0.495,0.456-0.726,0.688c4.307,7.606,6.635,16.233,6.635,25.125C244.758,119.082,244.758,137.909,244.758,154.909z"
			/>
		<linearGradient id="SVGID_6_" gradientUnits="userSpaceOnUse" x1="153.1406" y1="300.8467" x2="326.0125" y2="300.8467">
			<stop  offset="0" style="stop-color:#4DC0B3"/>
			<stop  offset="0.5054" style="stop-color:#5ECBED"/>
			<stop  offset="1" style="stop-color:#4286C6"/>
		</linearGradient>
		<path fill="url(#SVGID_6_)" d="M244.758,255.909c0,17,0,33.373,0,50.394c0,8.896-2.33,17.526-6.635,25.135
			c0.23,0.23,0.479,0.462,0.71,0.692c9.572,9.576,22.569,14.955,36.111,14.955c13.545,0,26.534-5.379,36.111-14.955
			c9.576-9.576,14.957-22.563,14.957-36.104c0-13.545-5.378-26.531-14.956-36.107c-0.524-0.526-1.051-1.052-1.578-1.579
			c-1.308-1.31-2.547-2.339-3.75-3.731c-3.22,0.635-6.517,1.301-9.847,1.301C278.861,255.909,259.758,255.909,244.758,255.909z"/>
		<linearGradient id="SVGID_7_" gradientUnits="userSpaceOnUse" x1="40.5674" y1="204.1807" x2="346.9434" y2="204.1807">
			<stop  offset="0" style="stop-color:#FAAD77"/>
			<stop  offset="0.3172" style="stop-color:#F3818F"/>
			<stop  offset="0.6129" style="stop-color:#EF5FA2"/>
			<stop  offset="1" style="stop-color:#E0519D"/>
		</linearGradient>
		<path fill="url(#SVGID_7_)" d="M305.729,154.98c-3.22-0.633-6.513-0.071-9.847-0.071c-17.021,0-36.124,0-51.124,0
			c0-17,0-35.827,0-52.852c0-8.892-2.328-17.525-6.635-25.133c-18.348,18.349-36.682,36.695-55.029,55.045
			c-19.151,19.153-29.9,45.127-29.9,72.211c0,27.085,10.761,53.061,29.913,72.212c18.347,18.348,36.666,36.692,55.014,55.045
			c4.305-7.608,6.638-16.239,6.638-25.135c0-17.021,0-33.394,0-50.394c15,0,34.104,0,51.124,0c3.33,0,6.627-0.666,9.847-1.301
			c-11.999-13.871-18.682-31.35-18.682-49.813C287.044,186.333,293.729,168.853,305.729,154.98z"/>
		<linearGradient id="SVGID_8_" gradientUnits="userSpaceOnUse" x1="153.1934" y1="204.1807" x2="326.0142" y2="204.1807">
			<stop  offset="0" style="stop-color:#B9539F"/>
			<stop  offset="1" style="stop-color:#6053A3"/>
		</linearGradient>
		<path fill="url(#SVGID_8_)" d="M305.729,154.98c-3.22-0.633-6.513-0.071-9.847-0.071c-17.021,0-36.124,0-51.124,0
			c0-17,0-35.827,0-52.852c0-8.892-2.328-17.525-6.635-25.133c-18.348,18.349-36.682,36.695-55.029,55.045
			c-19.151,19.153-29.9,45.127-29.9,72.211c0,27.085,10.761,53.061,29.913,72.212c18.347,18.348,36.666,36.692,55.014,55.045
			c4.305-7.608,6.638-16.239,6.638-25.135c0-17.021,0-33.394,0-50.394c15,0,34.104,0,51.124,0c3.33,0,6.627-0.666,9.847-1.301
			c-11.999-13.871-18.682-31.35-18.682-49.813C287.044,186.333,293.729,168.853,305.729,154.98z"/>
	</g>
</g>
</svg>
